<svg width="69" height="68" viewBox="0 0 69 68" fill="none" xmlns="http://www.w3.org/2000/svg">
<g clip-path="url(#clip0_104_2794)" filter="url(#filter0_d_104_2794)">
<path d="M61.1194 21.2611C60.3277 18.8096 60.6652 15.1295 58.6074 12.2881C56.5334 9.42425 52.9262 8.61027 50.8894 7.12058C48.874 5.6466 46.999 2.43906 43.6089 1.33281C40.3144 0.25773 36.9455 1.7166 34.3334 1.7166C31.7216 1.7166 28.3529 0.257378 25.0579 1.33269C21.6683 2.43871 19.7918 5.64695 17.7777 7.12023C15.7431 8.60816 12.1333 9.42437 10.0596 12.2877C8.00357 15.1268 8.33767 18.8153 7.54736 21.261C6.79525 23.5887 4.33337 26.3823 4.33337 30.0002C4.33337 33.6202 6.79244 36.403 7.54736 38.7392C8.33908 41.1907 8.00158 44.8708 10.0594 47.7122C12.1333 50.5762 15.7403 51.39 17.7774 52.8798C19.7924 54.3536 21.6677 57.5614 25.0579 58.6675C28.3501 59.7419 31.7243 58.2837 34.3334 58.2837C36.9388 58.2837 40.3208 59.7403 43.6089 58.6676C46.9985 57.5616 48.8739 54.3541 50.889 52.8801C52.9236 51.3921 56.5335 50.5759 58.6071 47.7126C60.6633 44.8734 60.329 41.1852 61.1194 38.7393C61.8715 36.4115 64.3334 33.6178 64.3334 30.0002C64.3334 26.3803 61.8749 23.5983 61.1194 21.2611ZM56.6591 37.2979C55.7363 40.1543 55.978 43.3511 54.8108 44.9629C53.6279 46.5961 50.5202 47.3421 48.1222 49.0962C45.7505 50.8307 44.0882 53.5803 42.1548 54.2111C40.3258 54.808 37.345 53.596 34.3335 53.596C31.3 53.596 28.3499 54.8106 26.512 54.2111C24.5789 53.5803 22.919 50.8326 20.5446 49.0961C18.1608 47.3527 15.0354 46.5913 13.8559 44.9627C12.6925 43.3562 12.9251 40.1373 12.0079 37.298C11.1088 34.5161 9.02087 32.1073 9.02087 30.0002C9.02087 27.8909 11.1069 25.4904 12.0076 22.7024C12.9305 19.8461 12.6887 16.6491 13.8559 15.0374C15.0381 13.4052 18.1481 12.6568 20.5446 10.9041C22.9239 9.16398 24.5758 6.42097 26.5118 5.78921C28.3393 5.19296 31.3299 6.40433 34.3333 6.40433C37.3723 6.40433 40.315 5.18886 42.1547 5.78921C44.0876 6.41992 45.749 9.16867 48.1222 10.9042C50.5057 12.6476 53.6313 13.409 54.8108 15.0375C55.9745 16.6443 55.7406 19.8599 56.6589 22.7022V22.7023C57.5579 25.4842 59.6459 27.893 59.6459 30.0002C59.6459 32.1094 57.5598 34.5099 56.6591 37.2979ZM45.1314 22.4773C46.0467 23.3927 46.0467 24.8766 45.1314 25.7918L33.4002 37.523C32.4849 38.4384 31.0008 38.4382 30.0856 37.523L23.5355 30.9729C22.6201 30.0576 22.62 28.5736 23.5354 27.6584C24.4507 26.7432 25.9349 26.743 26.8499 27.6584L31.7428 32.5512L41.8166 22.4774C42.732 21.5621 44.216 21.5621 45.1314 22.4773Z" fill="#242424"/>
</g>
<defs>
<filter id="filter0_d_104_2794" x="0.333374" y="0" width="68" height="68" filterUnits="userSpaceOnUse" color-interpolation-filters="sRGB">
<feFlood flood-opacity="0" result="BackgroundImageFix"/>
<feColorMatrix in="SourceAlpha" type="matrix" values="0 0 0 0 0 0 0 0 0 0 0 0 0 0 0 0 0 0 127 0" result="hardAlpha"/>
<feOffset dy="4"/>
<feGaussianBlur stdDeviation="2"/>
<feComposite in2="hardAlpha" operator="out"/>
<feColorMatrix type="matrix" values="0 0 0 0 0 0 0 0 0 0 0 0 0 0 0 0 0 0 0.25 0"/>
<feBlend mode="normal" in2="BackgroundImageFix" result="effect1_dropShadow_104_2794"/>
<feBlend mode="normal" in="SourceGraphic" in2="effect1_dropShadow_104_2794" result="shape"/>
</filter>
<clipPath id="clip0_104_2794">
<rect width="60" height="60" fill="white" transform="translate(4.33337)"/>
</clipPath>
</defs>
</svg>
